<?xml version="1.0" standalone="no"?>
<!DOCTYPE svg PUBLIC "-//W3C//DTD SVG 20010904//EN"
 "http://www.w3.org/TR/2001/REC-SVG-20010904/DTD/svg10.dtd">
<svg version="1.0" xmlns="http://www.w3.org/2000/svg"
 width="449.000000pt" height="476.000000pt" viewBox="0 0 449.000000 476.000000"
 preserveAspectRatio="xMidYMid meet">

<g transform="translate(0.000000,476.000000) scale(0.100000,-0.100000)"
fill="#000000" stroke="none">
<path d="M640 4709 c-62 -11 -185 -62 -267 -111 -126 -75 -241 -222 -286 -363
l-22 -70 3 -935 c3 -1025 1 -991 64 -1120 27 -56 68 -102 307 -340 l276 -275
5 1185 5 1185 24 52 c28 63 84 116 160 152 l56 26 1220 3 c1277 3 1284 3 1368
-40 94 -47 167 -149 188 -262 6 -33 9 -245 7 -538 l-3 -483 -24 -52 c-38 -85
-140 -168 -231 -189 -19 -4 -397 -8 -840 -9 -923 -1 -848 7 -972 -99 -40 -34
-88 -72 -106 -85 -21 -15 -31 -29 -28 -38 4 -9 1 -13 -6 -10 -18 6 -112 -74
-98 -83 8 -5 7 -9 -5 -13 -10 -5 -14 -3 -9 4 4 7 1 10 -7 7 -8 -3 -13 -11 -11
-17 1 -7 -1 -10 -6 -7 -4 2 -39 -22 -78 -56 -38 -33 -79 -67 -92 -75 -22 -16
-30 -43 -12 -43 6 0 10 7 10 15 0 8 4 15 10 15 6 0 6 -9 1 -22 -5 -13 -16 -22
-24 -20 -14 2 -16 -39 -17 -393 0 -256 3 -394 9 -390 6 3 8 12 5 19 -3 8 -1
17 5 21 7 3 8 0 5 -9 -11 -29 10 -16 75 45 35 33 73 67 85 75 18 13 19 16 6
25 -12 9 -11 10 4 5 11 -4 22 -3 25 1 3 5 22 21 41 37 19 16 73 63 120 106 47
42 120 108 163 145 74 66 89 85 66 85 -5 0 -7 -6 -3 -12 4 -7 3 -9 -1 -5 -11
10 -15 37 -6 37 4 0 12 -5 18 -11 14 -14 36 -2 27 13 -4 6 -2 8 4 4 6 -3 28
10 49 29 26 24 34 38 26 43 -7 4 -9 13 -4 21 6 10 10 9 15 -5 6 -15 8 -15 24
-1 15 14 112 16 892 20 986 4 929 -1 1096 83 198 99 401 327 468 524 34 102
37 168 34 755 l-3 580 -33 95 c-57 164 -139 286 -288 432 -168 165 -300 254
-462 312 l-87 31 -1440 1 c-832 1 -1463 -2 -1495 -7z m1170 -2219 c-8 -5 -19
-10 -25 -10 -5 0 -3 5 5 10 8 5 20 10 25 10 6 0 3 -5 -5 -10z m-210 -150 c0
-5 -10 -15 -22 -21 l-23 -12 20 21 c23 24 25 25 25 12z m344 -415 c-4 -8 -10
-15 -15 -15 -4 0 -6 7 -3 15 4 8 10 15 15 15 4 0 6 -7 3 -15z m-284 -289 c0
-3 -4 -8 -10 -11 -5 -3 -10 -1 -10 4 0 6 5 11 10 11 6 0 10 -2 10 -4z"/>
<path d="M864 952 c-15 -10 -34 -47 -34 -67 0 -9 11 -27 25 -40 36 -37 105
-35 135 2 25 32 21 79 -7 101 -18 13 -101 16 -119 4z"/>
<path d="M80 511 l0 -431 90 0 90 0 0 138 0 138 64 -4 c86 -6 217 13 265 37
94 49 147 157 139 285 -7 111 -56 184 -158 237 -43 23 -56 24 -267 27 l-223 3
0 -430z m416 263 c49 -36 65 -66 66 -123 0 -38 -6 -61 -23 -86 -38 -55 -65
-65 -178 -65 l-101 0 0 151 0 151 104 -4 c87 -2 109 -7 132 -24z"/>
<path d="M2000 909 c-30 -5 -59 -14 -64 -19 -5 -5 -11 -45 -14 -90 l-5 -80
-53 0 -54 0 0 -70 0 -70 59 0 60 0 3 -193 c3 -191 3 -194 30 -234 61 -92 240
-122 344 -58 18 11 20 20 14 69 -3 30 -8 57 -10 60 -3 2 -28 0 -55 -6 -36 -7
-63 -6 -93 1 -64 18 -72 42 -72 216 l0 145 110 0 110 0 0 70 0 70 -110 0 -110
0 0 100 c0 113 8 105 -90 89z"/>
<path d="M3910 734 c-122 -21 -199 -67 -231 -138 -29 -65 -28 -66 59 -66 67 0
82 3 98 21 44 48 151 66 211 35 18 -9 35 -29 42 -47 23 -66 24 -65 -121 -72
-141 -6 -180 -15 -240 -55 -50 -32 -72 -82 -72 -158 0 -73 22 -116 79 -156 61
-43 140 -55 223 -34 37 9 83 28 102 41 l35 25 5 -27 c5 -27 7 -28 83 -31 l77
-3 0 247 c0 226 -2 251 -20 288 -23 48 -74 91 -131 112 -44 15 -157 25 -199
18z m158 -380 c47 -13 19 -105 -44 -144 -44 -28 -130 -31 -168 -7 -45 30 -46
93 -2 122 40 27 161 43 214 29z"/>
<path d="M903 723 l-63 -4 0 -319 0 -318 73 -4 c39 -2 77 -2 84 0 9 3 11 85
10 325 -2 367 11 327 -104 320z"/>
<path d="M1344 716 c-160 -52 -255 -221 -223 -401 19 -106 86 -188 196 -238
70 -31 208 -31 278 1 70 32 142 104 159 159 6 19 0 25 -40 42 -68 31 -105 28
-126 -9 -20 -35 -87 -70 -133 -70 -16 0 -48 9 -70 19 -78 36 -111 98 -102 191
9 103 58 159 145 168 66 6 114 -11 152 -55 l31 -35 65 12 c36 7 68 19 71 26 7
19 -40 96 -78 128 -62 53 -108 69 -199 73 -52 2 -101 -2 -126 -11z"/>
<path d="M3463 714 c-18 -9 -49 -34 -68 -55 l-35 -39 0 50 0 50 -90 0 -90 0 0
-325 0 -325 85 0 85 0 0 189 c0 179 1 190 23 221 33 49 65 69 134 82 69 13 73
20 73 119 l0 49 -42 0 c-24 0 -58 -8 -75 -16z"/>
<path d="M2412 473 c3 -232 5 -251 25 -289 41 -77 110 -120 211 -130 75 -8
134 9 182 52 40 37 43 36 54 -9 7 -28 7 -28 84 -25 l77 3 3 323 2 322 -89 0
-90 0 -3 -219 c-3 -218 -3 -220 -28 -246 -53 -57 -124 -71 -190 -37 -63 31
-70 59 -70 295 l0 207 -86 0 -86 0 4 -247z"/>
</g>
</svg>
